<?xml version="1.0" encoding="UTF-8"?>
<svg width="27px" height="32px" viewBox="0 0 27 32" version="1.1" xmlns="http://www.w3.org/2000/svg" xmlns:xlink="http://www.w3.org/1999/xlink">
    <!-- Generator: Sketch 50.2 (55047) - http://www.bohemiancoding.com/sketch -->
    <title>Download</title>
    <desc>Created with Sketch.</desc>
    <defs></defs>
    <g id="Symbols" stroke="none" stroke-width="1" fill="none" fill-rule="evenodd">
        <g id="Download/Icon" fill="#FFFFFF" fill-rule="nonzero">
            <g id="Download">
                <g id="Layer_1">
                    <path d="M26.6666667,9.33333333 L26.6666667,28 C26.6666667,30.2093333 24.876,32 22.6666667,32 L4,32 C1.79066667,32 0,30.2093333 0,28 L0,9.33333333 C0,7.124 1.79066667,5.33333333 4,5.33333333 L9.33333333,5.33333333 L9.33333333,8 L4,8 C3.26362033,8 2.66666667,8.59695367 2.66666667,9.33333333 L2.66666667,28 C2.66666667,28.7363797 3.26362033,29.3333333 4,29.3333333 L22.6666667,29.3333333 C23.4030463,29.3333333 24,28.7363797 24,28 L24,9.33333333 C24,8.59695367 23.4030463,8 22.6666667,8 L17.3333333,8 L17.3333333,5.33333333 L22.6666667,5.33333333 C24.876,5.33333333 26.6666667,7.124 26.6666667,9.33333333 Z M19.6093333,15.0573333 C19.0886669,14.5368241 18.2446665,14.5368241 17.724,15.0573333 L14.6666667,18.1143333 L14.6666667,1.33333333 C14.6666667,0.596953667 14.069713,4.50902501e-17 13.3333333,0 C12.5969537,-4.50902501e-17 12,0.596953667 12,1.33333333 L12,18.1143333 L8.94266667,15.0573333 C8.60790071,14.7107246 8.11216281,14.5717165 7.64599023,14.6937371 C7.17981766,14.8157577 6.81575771,15.1798177 6.69373712,15.6459902 C6.57171654,16.1121628 6.71072455,16.6079007 7.05733333,16.9426667 L12.3906667,22.276 C12.9113331,22.7965093 13.7553335,22.7965093 14.276,22.276 L19.6093333,16.9426667 C19.85954,16.6927599 20.0001298,16.3536336 20.0001298,16 C20.0001298,15.6463664 19.85954,15.3072401 19.6093333,15.0573333 Z" id="Shape"></path>
                </g>
            </g>
        </g>
    </g>
</svg>