<?xml version="1.0" encoding="UTF-8"?>
<svg width="249px" height="117px" viewBox="0 0 249 117" version="1.1" xmlns="http://www.w3.org/2000/svg" xmlns:xlink="http://www.w3.org/1999/xlink">
    <!-- Generator: Sketch 50.2 (55047) - http://www.bohemiancoding.com/sketch -->
    <title>Eye, Mission, Vision, View, Idea, Future, Search, Find</title>
    <desc>Created with Sketch.</desc>
    <defs></defs>
    <g id="Symbols" stroke="none" stroke-width="1" fill="none" fill-rule="evenodd">
        <g id="Vision-Icon" transform="translate(-7.000000, -23.000000)" fill="#FFFFFF" fill-rule="nonzero">
            <g id="Eye,-Mission,-Vision,-View,-Idea,-Future,-Search,-Find">
                <g id="svg3787">
                    <g id="layer1" transform="translate(0.000000, 4.938394)">
                        <g id="g6205" transform="translate(6.291196, 7.066519)">
                            <g id="g6364" transform="translate(1.419787, 0.974771)">
                                <g id="g8900" transform="translate(0.031877, 7.444447)">
                                    <path d="M122.917857,2.80446286 C121.157178,2.82583314 119.312837,3.11322477 117.594643,3.28839143 C52.235082,6.52759713 1.20982143,57.97232 1.20982143,57.97232 C-0.277749913,59.4115933 -0.277749913,62.0982253 1.20982143,63.5374986 C1.20982143,63.5374986 52.2317216,115.45533 117.594643,118.705356 C119.703124,118.810194 121.748453,118.94732 123.885714,118.94732 C125.808413,118.939577 127.816925,118.896217 129.692857,118.705356 C195.289135,115.69007 246.561607,63.5374986 246.561607,63.5374986 C248.04918,62.0982253 248.04918,59.4115933 246.561607,57.97232 C246.561607,57.97232 192.278162,2.80446286 123.885714,2.80446286 C123.806118,2.80414153 123.723424,2.80446286 123.64375,2.80446286 C123.404682,2.80446286 123.156213,2.80157322 122.917857,2.80446286 Z M123.64375,10.54732 C123.974989,10.54732 124.281839,10.5409933 124.611607,10.54732 C125.984725,10.5550629 127.36571,10.7360909 128.725,10.7892843 C128.881096,10.80477 129.053297,10.77225 129.208929,10.7892843 C154.457673,13.578997 174.214286,34.9695071 174.214286,60.8758914 C174.214286,86.9528664 154.197808,108.387271 128.725,110.962499 C127.107494,111.12602 125.544203,111.196511 123.885714,111.204463 C122.069488,111.204463 120.354654,111.04112 118.5625,110.962499 C93.1363509,108.390229 73.5571429,86.9789986 73.5571429,60.8758914 C73.5571429,35.0386972 92.7749607,13.9427487 117.836607,11.0312486 C119.771245,10.8064967 121.644374,10.54732 123.64375,10.54732 Z M86.8651786,16.1124986 C74.0267464,26.7786327 65.8142857,42.8852157 65.8142857,60.8758914 C65.8142857,78.8722271 74.0267464,95.2168179 86.8651786,105.881249 C44.6238248,93.7076189 14.2756311,64.8506484 10.1625,60.8758914 C14.1579335,57.0100455 44.514309,28.3026128 86.8651786,16.1124986 Z M160.664286,16.1124986 C203.131348,28.265331 233.606499,57.0032782 237.608929,60.8758914 C233.488443,64.8577564 203.023893,93.7454117 160.664286,105.881249 C173.637482,95.2215333 181.957143,78.8879064 181.957143,60.8758914 C181.957143,42.8695365 173.637482,26.7739173 160.664286,16.1124986 Z M119.381803,18.5222306 C103.630415,18.5222306 89.8255361,28.9557306 85.748767,44.1704449 C85.1663493,46.1377423 86.4343195,48.4574713 88.4046367,49.0295058 C90.3749615,49.6015481 92.6880007,48.3214215 93.2496598,46.3481234 C96.4290628,34.4821949 107.097497,26.2650877 119.381803,26.2650877 C121.427125,26.2937363 123.308368,24.4391904 123.308368,22.3936591 C123.308368,20.3481357 121.427125,18.4933033 119.381803,18.5222306 Z M123.885714,37.64732 C111.084797,37.64732 100.657143,48.11876 100.657143,60.8758914 C100.657143,73.63612 111.084983,84.1044629 123.885714,84.1044629 C136.684014,84.1044629 147.114286,73.6639943 147.114286,60.8758914 C147.114286,48.0908857 136.684193,37.64732 123.885714,37.64732 Z M123.885714,45.3901771 C132.502508,45.3901771 139.371429,52.2983543 139.371429,60.8758914 C139.371429,69.4580743 132.502701,76.3616057 123.885714,76.3616057 C115.265119,76.3616057 108.4,69.4859486 108.4,60.8758914 C108.4,52.27048 115.265305,45.3901771 123.885714,45.3901771 Z" id="path7100"></path>
                                </g>
                            </g>
                        </g>
                    </g>
                </g>
            </g>
        </g>
    </g>
</svg>