<?xml version="1.0" encoding="UTF-8"?>
<svg width="231px" height="148px" viewBox="0 0 231 148" version="1.1" xmlns="http://www.w3.org/2000/svg" xmlns:xlink="http://www.w3.org/1999/xlink">
    <!-- Generator: Sketch 50.2 (55047) - http://www.bohemiancoding.com/sketch -->
    <title>Agreement</title>
    <desc>Created with Sketch.</desc>
    <defs></defs>
    <g id="Symbols" stroke="none" stroke-width="1" fill="none" fill-rule="evenodd">
        <g id="Agreement" fill="#FFFFFF" fill-rule="nonzero">
            <g id="Layer_1">
                <g>
                    <g id="Group">
                        <path d="M193.292715,79.73196 L170.62815,34.28733 C170.37174,33.784905 170.03217,33.31713 169.6002,32.925585 C169.167075,32.535195 168.681975,32.248755 168.176085,32.06742 L141.599535,22.51557 C139.74807,21.85029 137.764935,21.493395 135.70095,21.511875 C133.639275,21.53382 131.66538,21.929985 129.823155,22.63107 L109.65801,30.32337 C108.238515,30.86622 106.829415,31.48992 105.43995,32.200245 C104.97564,32.440485 104.519415,32.70036 104.0655,32.955615 C102.54321,32.130945 100.95393,31.40445 99.29535,30.786525 C94.00545,28.809165 88.5885,28.141575 83.345955,28.589715 L69.779325,29.753955 C69.18912,29.804775 68.59314,29.987265 68.03643,30.31413 C67.47972,30.64215 67.02003,31.084515 66.658515,31.59618 L36.111075,75.083085 C35.4816,75.9759 35.145495,77.11242 35.24829,78.314775 C35.348775,79.51713 35.866215,80.571645 36.630825,81.329325 L49.917945,94.49748 C49.18914,95.831505 48.72714,97.32954 48.62088,98.93268 C48.42915,101.81325 49.375095,104.59449 51.276225,106.764735 C53.179665,108.933825 55.81191,110.2332 58.69479,110.421465 C58.848405,110.43186 59.00433,110.43186 59.160255,110.437635 C57.97869,114.25722 58.945425,118.5954 62.0235,121.50831 C63.865725,123.25236 66.2277,124.26876 68.737515,124.431615 C67.120515,128.439465 67.99485,133.218855 71.299305,136.34544 C73.31478,138.25581 75.95049,139.305705 78.728265,139.305705 C81.620385,139.305705 84.318465,138.176115 86.355885,136.136385 C87.113565,141.031275 91.18032,144.93402 96.323535,145.270125 C96.56031,145.286295 96.80286,145.29669 97.039635,145.29669 C98.354025,145.29669 99.612975,145.048365 100.784145,144.611775 C102.696825,145.886895 104.976795,146.589135 107.40345,146.49096 C110.38566,146.36622 113.06064,145.050675 115.0611,142.992465 L107.753415,135.70095 C107.77074,135.53232 107.801925,135.37062 107.808855,135.196215 C107.903565,133.764015 107.707215,132.378015 107.28102,131.09019 L122.237115,146.00817 C124.124385,146.776245 126.177975,147.16086 128.317035,147.074235 C132.597465,146.89983 136.41012,144.87858 139.11051,141.75084 L140.60739,140.014875 C140.74599,139.850865 140.85225,139.666065 140.94465,139.467405 L117.917415,116.503695 C117.323745,115.9158 117.27639,114.937515 117.80307,114.3219 C118.330905,113.70975 119.245665,113.68896 119.834715,114.276855 L147.22092,141.58683 C148.71318,142.110045 150.310545,142.3653 151.97028,142.297155 C155.73327,142.14354 159.090855,140.365995 161.46438,137.61132 L165.080685,133.4256 C165.909975,132.46002 166.404315,131.15718 166.358115,129.74115 L142.32603,105.78183 C141.73929,105.19278 141.68616,104.212185 142.21284,103.60119 C142.74414,102.987885 143.65659,102.967095 144.244485,103.55499 L168.38976,127.630965 C169.38075,127.89546 170.421405,128.02482 171.490935,127.982085 C174.57594,127.857345 177.32022,126.402045 179.26293,124.14633 L180.234285,123.02136 C182.17815,120.770265 183.32391,117.721065 183.207255,114.40506 C183.089445,111.09021 181.738095,108.14496 179.642925,106.05441 L173.19687,99.62799 L174.82542,101.24961 L192.25437,85.51158 C192.994725,84.8463 193.5318,83.914215 193.72815,82.819275 C193.923345,81.72549 193.74663,80.645565 193.292715,79.73196 Z M58.9974,105.762195 C57.363075,105.655935 55.868505,104.919045 54.78627,103.685505 C53.70519,102.45543 53.17158,100.876545 53.28015,99.238755 C53.486895,96.02439 56.178045,93.507645 59.391255,93.507645 C59.527545,93.507645 59.666145,93.51111 59.802435,93.519195 C61.43676,93.627765 62.93133,94.3635 64.013565,95.59704 C65.094645,96.829425 65.628255,98.407155 65.52315,100.044945 C65.29908,103.3956 62.387325,105.988575 58.9974,105.762195 Z M69.446685,119.795445 C67.87242,119.795445 66.37554,119.201775 65.23209,118.11954 C62.805435,115.82571 62.673765,111.959925 64.926015,109.515945 C65.04267,109.39467 67.43583,106.86291 68.5839,105.65478 L69.18681,105.013755 C70.35798,103.777905 71.94033,103.096455 73.6428,103.096455 C75.21822,103.096455 76.716255,103.69359 77.857395,104.778135 C79.0482,105.903105 79.730805,107.42424 79.774695,109.06434 C79.81974,110.698665 79.22376,112.25676 78.09879,113.4441 L76.3917,115.249365 C76.02672,115.632825 75.635175,116.04747 75.23439,116.4702 C75.170865,116.54181 75.10041,116.61342 75.039195,116.68041 C74.741205,116.993415 74.477865,117.270615 74.27343,117.48429 C74.156775,117.610185 74.04012,117.73608 73.92,117.85851 C73.88997,117.889695 73.86687,117.91626 73.86456,117.919725 C72.70263,119.130165 71.130675,119.795445 69.446685,119.795445 Z M83.14152,132.761475 C81.976125,133.971915 80.40879,134.637195 78.725955,134.637195 C77.150535,134.637195 75.65019,134.04006 74.510205,132.95667 C72.084705,130.66284 71.95188,126.79821 74.1972,124.36578 C74.25033,124.30803 75.655965,122.82039 77.24871,121.139865 C77.24871,121.13871 77.24871,121.13871 77.24871,121.13871 L78.43143,119.890155 C80.502345,117.697965 81.181485,116.98533 81.410175,116.737005 C81.43674,116.71275 81.467925,116.683875 81.48987,116.658465 L81.49449,116.655 C81.694305,116.439015 81.81096,116.318895 81.814425,116.31543 C82.983285,115.07958 84.567945,114.396975 86.27157,114.396975 C87.84699,114.396975 89.34156,114.992955 90.486165,116.076345 C91.67697,117.203625 92.35611,118.725915 92.401155,120.361395 C92.4462,122.00265 91.85022,123.55959 90.72063,124.752705 C90.610905,124.868205 83.378295,132.509685 83.14152,132.761475 Z M96.6273,140.615475 C93.25239,140.391405 90.68598,137.464635 90.908895,134.092035 C91.12026,130.87536 93.801015,128.358615 97.018845,128.358615 C97.155135,128.358615 97.293735,128.363235 97.430025,128.37132 C100.80378,128.59308 103.37019,131.51985 103.15074,134.893605 C102.92898,138.24195 100.021845,140.83839 96.6273,140.615475 Z M171.615675,98.05257 L123.874905,50.45502 L124.413135,49.095585 C124.69149,48.386415 124.655685,47.54904 124.24797,46.84449 C123.8391,46.14225 123.15534,45.73338 122.43924,45.695265 L118.89108,45.482745 L115.0149,45.2529 L114.720375,49.84749 C114.71691,49.943355 113.948835,60.391485 108.62082,69.8313 C103.158825,79.518285 95.921595,82.858545 94.81857,83.073375 C93.586185,83.31246 92.29374,83.539995 91.21959,83.539995 C90.481545,83.539995 89.913285,83.436045 89.42703,83.21313 L87.614835,82.373445 C86.854845,82.02117 86.275035,81.37437 85.96896,80.5497 C85.67097,79.753905 85.674435,78.88419 85.96896,78.090705 L104.126715,38.240895 L107.21403,36.20694 L108.457965,35.73339 L108.455655,35.73339 L131.276145,27.02931 C132.710655,26.482995 134.21331,26.196555 135.739065,26.182695 L135.866115,26.18154 C137.346825,26.18154 138.813675,26.43795 140.218155,26.94384 L166.79586,36.49569 L189.462735,81.939165 L171.615675,98.05257 Z" id="Shape"></path>
                        <path d="M197.446095,5.263335 L179.504325,14.20881 C176.924055,15.498945 174.831195,17.771985 173.842515,20.724165 C172.85499,23.6775 173.161065,26.750955 174.44427,29.337 L197.935815,76.432125 C199.22364,79.01124 201.495525,81.107565 204.45348,82.091625 C207.40335,83.080305 210.476805,82.77885 213.061695,81.48987 L231,72.539775 L197.446095,5.263335 Z M213.015495,72.567495 C210.63273,72.567495 208.69464,70.63518 208.69464,68.24895 C208.69464,65.86041 210.63273,63.923475 213.015495,63.923475 C215.40288,63.923475 217.34097,65.86041 217.34097,68.24895 C217.34097,70.63518 215.40288,72.567495 213.015495,72.567495 Z" id="Shape"></path>
                        <path d="M0,62.27067 L16.40331,73.794105 C18.76413,75.454995 21.759045,76.21152 24.826725,75.674445 C27.896715,75.13968 30.453885,73.40949 32.11131,71.049825 L62.364225,27.984495 C64.02627,25.62483 64.782795,22.62645 64.24803,19.56108 C63.708645,16.492245 61.985385,13.932765 59.622255,12.271875 L43.216635,0.75075 L0,62.27067 Z M14.14875,60.06 C14.50449,57.69918 16.707075,56.074095 19.06443,56.42868 C21.42756,56.785575 23.050335,58.989315 22.696905,61.34898 C22.34001,63.71211 20.139735,65.337195 17.77776,64.97799 C15.415785,64.62456 13.791855,62.42313 14.14875,60.06 Z" id="Shape"></path>
                    </g>
                </g>
            </g>
        </g>
    </g>
</svg>