<?xml version="1.0" encoding="UTF-8"?>
<svg width="155px" height="155px" viewBox="0 0 155 155" version="1.1" xmlns="http://www.w3.org/2000/svg" xmlns:xlink="http://www.w3.org/1999/xlink">
    <!-- Generator: Sketch 50.2 (55047) - http://www.bohemiancoding.com/sketch -->
    <title>Target</title>
    <desc>Created with Sketch.</desc>
    <defs>
        <polygon id="path-1" points="0.1453125 155 0.1453125 0.096875 155 0.096875 155 155"></polygon>
    </defs>
    <g id="Symbols" stroke="none" stroke-width="1" fill="none" fill-rule="evenodd">
        <g id="Target">
            <g id="target">
                <g>
                    <g id="Page-1">
                        <g id="target">
                            <g id="Group-3">
                                <g id="Fill-1-Clipped">
                                    <mask id="mask-2" fill="white">
                                        <use xlink:href="#path-1"></use>
                                    </mask>
                                    <g id="path-1"></g>
                                    <path d="M155,77.5 C155,120.301797 120.301797,155 77.5,155 C34.6982031,155 0,120.301797 0,77.5 C0,34.6982031 34.6982031,0 77.5,0 C120.301797,0 155,34.6982031 155,77.5" id="Fill-1" fill="#061B30" fill-rule="nonzero" mask="url(#mask-2)"></path>
                                </g>
                            </g>
                            <path d="M77.5,131.625 C48.0742188,131.625 24.21875,107.769531 24.21875,78.34375 C24.21875,48.9179688 48.0742188,25.0625 77.5,25.0625 C106.925781,25.0625 130.78125,48.9179688 130.78125,78.34375 C130.78125,107.769531 106.925781,131.625 77.5,131.625" id="Fill-4" fill="#414A55" fill-rule="nonzero"></path>
                            <path d="M29.0625,72.5 C29.0625,45.7915625 50.7915625,24.0625 77.5,24.0625 C104.208437,24.0625 125.9375,45.7915625 125.9375,72.5 C125.9375,99.2084375 104.208437,120.9375 77.5,120.9375 C50.7915625,120.9375 29.0625,99.2084375 29.0625,72.5 Z" id="Fill-5" fill="#061B30" fill-rule="nonzero"></path>
                            <path d="M77.5,25.21875 C48.0742188,25.21875 24.21875,49.0742188 24.21875,78.5 C24.21875,107.925781 48.0742188,131.78125 77.5,131.78125 C106.925781,131.78125 130.78125,107.925781 130.78125,78.5 C130.78125,49.0742188 106.925781,25.21875 77.5,25.21875 Z M77.5,34.90625 C101.537109,34.90625 121.09375,54.4628906 121.09375,78.5 C121.09375,102.537109 101.537109,122.09375 77.5,122.09375 C53.4628906,122.09375 33.90625,102.537109 33.90625,78.5 C33.90625,54.4628906 53.4628906,34.90625 77.5,34.90625 Z" id="Fill-6" fill="#FFFFFF" fill-rule="nonzero"></path>
                            <path d="M77.5,44.59375 C58.7740625,44.59375 43.59375,59.7740625 43.59375,78.5 C43.59375,97.2259375 58.7740625,112.40625 77.5,112.40625 C96.2259375,112.40625 111.40625,97.2259375 111.40625,78.5 C111.40625,59.7740625 96.2259375,44.59375 77.5,44.59375 Z M77.5,55.28125 C90.8542188,55.28125 101.71875,66.1457812 101.71875,79.5 C101.71875,92.8542188 90.8542188,103.71875 77.5,103.71875 C64.1457812,103.71875 53.28125,92.8542188 53.28125,79.5 C53.28125,66.1457812 64.1457812,55.28125 77.5,55.28125 Z" id="Fill-7" fill="#FFFFFE" fill-rule="nonzero"></path>
                            <path d="M89.609375,80.5 C89.6089425,84.8266957 87.3002781,88.8244966 83.5530334,90.9874698 C79.8057887,93.150443 75.1892594,93.1499814 71.4424473,90.9862589 C67.6956353,88.8225363 65.3877704,84.8242738 65.3882031,80.4975781 C65.388872,73.8090863 70.8115082,68.3875346 77.5,68.3882034 C84.1884918,68.3888722 89.6100436,73.8115082 89.609375,80.5" id="Fill-8" fill="#FFFFFE" fill-rule="nonzero"></path>
                        </g>
                    </g>
                </g>
            </g>
        </g>
    </g>
</svg>